<?xml version="1.0" encoding="UTF-8"?>
<svg id="Capa_2" data-name="Capa 2" xmlns="http://www.w3.org/2000/svg" viewBox="0 0 31.63 31.66">
  <defs>
    <style>
      .cls-1 {
        fill: #fff;
      }
    </style>
  </defs>
  <g id="Capa_1-2" data-name="Capa 1">
    <g>
      <path d="M15.3,0c9.77-.28,17.63,8.41,16.14,18.12-1.95,12.77-17.37,18.04-26.7,9.03C-5.2,17.56,1.54.4,15.3,0ZM27.01,8.57c.3-.27-1.85-2.52-2.15-2.78C17.88-.36,6.63,2.24,3.31,10.91c.38-.03.93.11,1.26-.09.12-.08,1.11-2.06,1.44-2.51,4.01-5.54,12.28-6.33,17.58-2.14.51.4,2.03,2.25,2.17,2.32.37.18.86.07,1.26.09ZM28.27,11.27l-.29-.87-2.76-.11c-1.82-3.28-5.55-5.47-9.33-5.3v.9c3.75-.19,7.16,2.16,8.89,5.39h3.5ZM5.8,13.08c-1.58-.65-4.03.2-3.01,2.2.54,1.05,2.19.8,2.15,2.18-.33,1.02-1.65.01-2.04.11l-.44.42c-.15.96,3.8,1.58,3.55-1.08-.15-1.6-2.08-1.29-2.36-2.69,0-.68,1.73-.45,2.17-.27l-.02-.88ZM7.8,13.06h-1.08v4.22c0,1.35,2.26,1.93,3.36,1.21.24-.16.77-.84.77-1.03v-4.4h-1.08v4.22c0,.82-1.98.82-1.98,0v-4.22ZM13.87,13.09c-.43-.1-.78-.12-1.02.27-.13.22-1.55,4.34-1.61,4.68-.27,1.56,1.33.37,1.33-.68l1.57.04c.64.69.16,1.58,1.55,1.41l-1.82-5.71ZM19.02,13.06c-.93-.2-2.49.15-3.5,0,.03.66.26.83.9.72v4.76c0,.23.75.45,1,.1.36-.53-.37-2.46.53-2.53,1.67-.13.8,3.18,2.6,2.7.28-.25-1.03-2.7-1.02-2.96.01-.16.37-.44.44-.76.18-.77-.05-1.83-.95-2.03ZM24.49,13.06h-3.23v5.48l.27.27h2.69c.22,0,.69-.96-.35-1.09-.32-.04-1.65.08-1.72,0l.08-1.45,2.08-.17v-.72c-1.35-.03-2.59.45-2.08-1.45l2.26-.17v-.72ZM29.16,13.06h-3.95v.72s2.15,0,2.15,0c.42.4-2.23,3.75-2.16,4.58.01.16.17.45.28.45h2.87c.4,0,.71-.7.63-1.08l-2.33-.09,2.51-4.58ZM6.81,20.42h-3.5l.3.9,2.75.08c2.01,3.26,5.59,5.52,9.52,5.3.16-1.28-.73-.77-1.51-.91-3.45-.66-5.75-2.41-7.56-5.37ZM28.26,20.78l-1.24.02c-.05.37-.15.68-.35,1-4.3,7.15-13.28,8.58-19.52,2.93-.86-.78-1.24-2.07-2.6-1.53,5.68,9.06,20.04,7.65,23.7-2.42Z"/>
      <path class="cls-1" d="M27.01,8.57c-.4-.02-.89.09-1.26-.09-.14-.07-1.66-1.92-2.17-2.32-5.3-4.19-13.56-3.39-17.58,2.14-.32.45-1.31,2.44-1.44,2.51-.33.2-.88.05-1.26.09C6.63,2.24,17.88-.36,24.86,5.79c.3.27,2.45,2.51,2.15,2.78Z"/>
      <path class="cls-1" d="M28.26,20.78c-3.66,10.07-18.02,11.48-23.7,2.42,1.36-.54,1.74.75,2.6,1.53,6.24,5.65,15.22,4.21,19.52-2.93.19-.32.3-.63.35-1l1.24-.02Z"/>
      <path class="cls-1" d="M19.02,13.06c.9.19,1.13,1.25.95,2.03-.07.31-.43.6-.44.76-.02.26,1.29,2.71,1.02,2.96-1.81.48-.93-2.83-2.6-2.7-.9.07-.17,2-.53,2.53-.24.35-1,.13-1-.1v-4.76c-.64.11-.87-.06-.9-.72,1.01.15,2.57-.2,3.5,0ZM18.9,13.99c-.33-.16-1.09-.38-1.33-.04l.09,1.37c.31.22.93-.01,1.18-.28l.06-1.05Z"/>
      <path class="cls-1" d="M6.81,20.42c1.81,2.95,4.11,4.71,7.56,5.37.78.15,1.67-.37,1.51.91-3.92.22-7.51-2.04-9.52-5.3l-2.75-.08-.3-.9h3.5Z"/>
      <path class="cls-1" d="M28.27,11.27h-3.5c-1.73-3.23-5.13-5.58-8.89-5.39v-.9c3.78-.16,7.51,2.02,9.33,5.3l2.76.11.29.87Z"/>
      <path class="cls-1" d="M7.8,13.06v4.22c0,.82,1.98.82,1.98,0v-4.22h1.08v4.4c0,.19-.53.87-.77,1.03-1.11.73-3.36.14-3.36-1.21v-4.22h1.08Z"/>
      <path class="cls-1" d="M13.87,13.09l1.82,5.71c-1.39.17-.91-.73-1.55-1.41l-1.57-.04c0,1.06-1.6,2.25-1.33.68.06-.34,1.48-4.47,1.61-4.68.24-.39.59-.36,1.02-.27ZM13.9,16.47l-.45-1.61-.63,1.61h1.08Z"/>
      <path class="cls-1" d="M29.16,13.06l-2.51,4.58,2.33.09c.08.38-.23,1.08-.63,1.08h-2.87c-.11,0-.27-.29-.28-.45-.07-.82,2.58-4.17,2.16-4.58h-2.15s0-.72,0-.72h3.95Z"/>
      <path class="cls-1" d="M24.49,13.06v.72s-2.26.17-2.26.17c-.52,1.89.72,1.42,2.08,1.45v.72s-2.08.17-2.08.17l-.08,1.45c.07.07,1.4-.05,1.72,0,1.04.13.57,1.09.35,1.09h-2.69l-.27-.27v-5.48h3.23Z"/>
      <path class="cls-1" d="M5.8,13.08l.02.88c-.44-.18-2.17-.41-2.17.27.28,1.4,2.21,1.09,2.36,2.69.24,2.66-3.7,2.04-3.55,1.08l.44-.42c.39-.1,1.72.9,2.04-.11.04-1.38-1.61-1.13-2.15-2.18-1.02-2,1.43-2.85,3.01-2.2Z"/>
      <path d="M18.9,13.99l-.06,1.05c-.25.27-.87.5-1.18.28l-.09-1.37c.24-.35,1-.13,1.33.04Z"/>
      <polygon points="13.9 16.47 12.82 16.47 13.45 14.86 13.9 16.47"/>
    </g>
  </g>
</svg>